{"title":"The Hateful Eight (2015) DVDScr XVID AC3 HQ Hive-CM8","uid":13048697,"size":2597759922,"categoryP":"video","categoryS":"movies","magnet":"?xt=urn:btih:e18ce846f67cf349403f50a784e6a39ce9ed4999&amp;dn=The+Hateful+Eight+%282015%29+DVDScr+XVID+AC3+HQ+Hive-CM8&amp;tr=udp%3A%2F%2Ftracker.leechers-paradise.org%3A6969&amp;tr=udp%3A%2F%2Fzer0day.ch%3A1337&amp;tr=udp%3A%2F%2Fopen.demonii.com%3A1337&amp;tr=udp%3A%2F%2Ftracker.coppersurfer.tk%3A6969&amp;tr=udp%3A%2F%2Fexodus.desync.com%3A6969","seeders":9,"leechers":4,"uploader":"tykoon123","files":3,"time":1450597917,"description":"http://img911.imageshack.us/img911/5001/jlZFWH.jpg\r\n\r\n\r\nThx Hive\r\n\r\nCM8 Doing It Right The First Time \r\n\r\nSource: DVD-Screener Big Thanks M8\r\n\r\nNotes:\r\n\r\nDVDScreener 1 of 40 :wink:\r\nwill do them all one after each other, started with the hottest title of this year, the rest will follow\r\n\r\nEncode:\r\n\r\nquality was perfect on this.\r\nAll digital watermarks are removed,were quite a lot even had to crop 10 lines to get it done safely.\r\nFixed brightness,contrast and rgb, and added sharpness.\r\n\r\ngot very nice\r\nenjoy\r\n\r\n\r\nVideo:720x266 @bitrate 1600 2pass\r\nAudio: English AC3 5.1 @448\r\nSample: yes include\r\n\r\n\r\n \nhttp://www.imdb.com/title/tt3460252/\r\n\r\n\r\n\r\nGeneral\r\nComplete name                  : The.Hateful.Eight.2015.DVDScr.XVID.AC3.HQ.Hive-CM8.avi\r\nFormat                         : AVI\r\nFormat/Info                    : Audio Video Interleave\r\nFormat profile                 : OpenDML\r\nFormat settings                : rec\r\nFile size                      : 2.41 GiB\r\nDuration                       : 2h 47mn\r\nOverall bit rate               : 2 054 Kbps\r\nWriting application            : AVI-Mux GUI 1.17.7, Aug  8 2006  20:59:17\r\n\r\nVideo\r\nID                             : 0\r\nFormat                         : MPEG-4 Visual\r\nFormat profile                 : Advanced   \r\nFormat settings, BVOP          : 3\r\nFormat settings, QPel          : Yes\r\nFormat settings, GMC           : No warppoints\r\nFormat settings, Matrix        : Default (H.263)\r\nMuxing mode                    : Packed bitstream\r\nCodec ID                       : XVID\r\nCodec ID/Hint                  : XviD\r\nDuration                       : 2h 47mn\r\nBit rate                       : 1 600 Kbps\r\nWidth                          : 720 pixels\r\nHeight                         : 260 pixels\r\nDisplay aspect ratio           : 2.769\r\nFrame rate                     : 29.970 fps\r\nColor space                    : YUV\r\nChroma subsampling             : 4:2:0\r\nBit depth                      : 8 bits\r\nScan type                      : Progressive\r\nCompression mode               : Lossy\r\nBits/(Pixel*Frame)             : 0.285\r\nStream size                    : 1.88 GiB (78%)\r\nWriting library                : XviD 1.2.1 (UTC 2008-12-04)\r\n\r\nAudio\r\nID                             : 1\r\nFormat                         : AC-3\r\nFormat/Info                    : Audio Coding 3\r\nMode extension                 : CM (complete main)\r\nFormat settings, Endianness    : Big\r\nCodec ID                       : 2000\r\nDuration                       : 2h 47mn\r\nBit rate mode                  : Constant\r\nBit rate                       : 448 Kbps\r\nChannel(s)                     : 6 channels\r\nChannel positions              : Front: L C R, Side: L R, LFE\r\nSampling rate                  : 48.0 KHz\r\nBit depth                      : 16 bits\r\nCompression mode               : Lossy\r\nStream size                    : 538 MiB (22%)\r\nAlignment                      : Aligned on interleaves\r\nInterleave, duration           : 64 ms (1.92 video frames)\r\nInterleave, preload duration   : 192 ms\r\nTitle                          : Hateful Eight_track3\r\n\r\n\r\n\r\n\r\nScreens  \nhttp://imgh.us/IbtClC_1.png \nhttp://img905.imageshack.us/img905/734/1CGBXL.png \nhttp://img910.imageshack.us/img910/8968/kPQegA.png","torrent":{"xt":"urn:btih:e18ce846f67cf349403f50a784e6a39ce9ed4999","amp;dn":"The+Hateful+Eight+%282015%29+DVDScr+XVID+AC3+HQ+Hive-CM8","amp;tr":["udp%3A%2F%2Ftracker.leechers-paradise.org%3A6969","udp%3A%2F%2Fzer0day.ch%3A1337","udp%3A%2F%2Fopen.demonii.com%3A1337","udp%3A%2F%2Ftracker.coppersurfer.tk%3A6969","udp%3A%2F%2Fexodus.desync.com%3A6969"],"infoHash":"e18ce846f67cf349403f50a784e6a39ce9ed4999","infoHashBuffer":{"type":"Buffer","data":[225,140,232,70,246,124,243,73,64,63,80,167,132,230,163,156,233,237,73,153]},"announce":[],"urlList":[]}}